<svg width="800" height="600" viewBox="0 0 800 600" xmlns="http://www.w3.org/2000/svg">
  <!-- Gradient Background -->
  <defs>
    <linearGradient id="bgGradient" x1="0%" y1="0%" x2="100%" y2="100%">
      <stop offset="0%" stop-color="#1a365d" />
      <stop offset="100%" stop-color="#2563eb" />
    </linearGradient>
    <filter id="blur" x="-50%" y="-50%" width="200%" height="200%">
      <feGaussianBlur in="SourceGraphic" stdDeviation="5" />
    </filter>
  </defs>
  
  <!-- Background -->
  <rect width="800" height="600" fill="url(#bgGradient)" />
  
  <!-- Abstract shapes -->
  <circle cx="200" cy="150" r="80" fill="#3b82f6" opacity="0.3" filter="url(#blur)" />
  <circle cx="600" cy="450" r="100" fill="#1e40af" opacity="0.4" filter="url(#blur)" />
  <circle cx="700" cy="100" r="60" fill="#60a5fa" opacity="0.2" filter="url(#blur)" />
  
  <!-- Car Silhouette -->
  <g transform="translate(150, 250) scale(1.2)">
    <!-- Car Body -->
    <path d="M50,120 C50,120 80,120 100,120 L150,80 L350,80 L400,120 C420,120 450,120 450,120 C470,120 480,130 480,140 L480,180 C480,190 470,200 460,200 L440,200 C440,200 430,170 400,170 C370,170 360,200 360,200 L140,200 C140,200 130,170 100,170 C70,170 60,200 60,200 L40,200 C30,200 20,190 20,180 L20,140 C20,130 30,120 50,120 Z" fill="#ffffff" stroke="#000000" stroke-width="2" />
    
    <!-- Windows -->
    <path d="M150,80 L180,120 L320,120 L350,80 Z" fill="#a5f3fc" stroke="#000000" stroke-width="1" />
    
    <!-- Wheels -->
    <circle cx="100" cy="200" r="30" fill="#1e293b" stroke="#000000" stroke-width="2" />
    <circle cx="100" cy="200" r="15" fill="#94a3b8" stroke="#000000" stroke-width="1" />
    <circle cx="400" cy="200" r="30" fill="#1e293b" stroke="#000000" stroke-width="2" />
    <circle cx="400" cy="200" r="15" fill="#94a3b8" stroke="#000000" stroke-width="1" />
    
    <!-- Headlights -->
    <ellipse cx="50" cy="130" rx="10" ry="8" fill="#fef08a" stroke="#000000" stroke-width="1" />
    <ellipse cx="450" cy="130" rx="10" ry="8" fill="#fef08a" stroke="#000000" stroke-width="1" />
    
    <!-- Details -->
    <rect x="180" y="100" width="140" height="1" fill="#000000" />
    <path d="M100,120 L100,140" stroke="#000000" stroke-width="1" />
    <path d="M400,120 L400,140" stroke="#000000" stroke-width="1" />
  </g>
  
  <!-- Additional Cars in Background -->
  <g transform="translate(500, 300) scale(0.6)" opacity="0.5">
    <path d="M50,120 C50,120 80,120 100,120 L150,80 L350,80 L400,120 C420,120 450,120 450,120 C470,120 480,130 480,140 L480,180 C480,190 470,200 460,200 L440,200 C440,200 430,170 400,170 C370,170 360,200 360,200 L140,200 C140,200 130,170 100,170 C70,170 60,200 60,200 L40,200 C30,200 20,190 20,180 L20,140 C20,130 30,120 50,120 Z" fill="#ffffff" stroke="#000000" stroke-width="2" />
    <circle cx="100" cy="200" r="30" fill="#1e293b" stroke="#000000" stroke-width="2" />
    <circle cx="400" cy="200" r="30" fill="#1e293b" stroke="#000000" stroke-width="2" />
  </g>
  
  <g transform="translate(50, 350) scale(0.4)" opacity="0.3">
    <path d="M50,120 C50,120 80,120 100,120 L150,80 L350,80 L400,120 C420,120 450,120 450,120 C470,120 480,130 480,140 L480,180 C480,190 470,200 460,200 L440,200 C440,200 430,170 400,170 C370,170 360,200 360,200 L140,200 C140,200 130,170 100,170 C70,170 60,200 60,200 L40,200 C30,200 20,190 20,180 L20,140 C20,130 30,120 50,120 Z" fill="#ffffff" stroke="#000000" stroke-width="2" />
    <circle cx="100" cy="200" r="30" fill="#1e293b" stroke="#000000" stroke-width="2" />
    <circle cx="400" cy="200" r="30" fill="#1e293b" stroke="#000000" stroke-width="2" />
  </g>
  
  <!-- Decorative Elements -->
  <path d="M0,500 C100,450 200,550 300,500 C400,450 500,550 600,500 C700,450 800,550 800,500 L800,600 L0,600 Z" fill="#1e3a8a" opacity="0.7" />
  
  <!-- Small particles/stars -->
  <g fill="#ffffff" opacity="0.5">
    <circle cx="100" cy="100" r="1" />
    <circle cx="200" cy="50" r="1" />
    <circle cx="300" cy="150" r="1" />
    <circle cx="400" cy="80" r="1" />
    <circle cx="500" cy="120" r="1" />
    <circle cx="600" cy="60" r="1" />
    <circle cx="700" cy="140" r="1" />
    <circle cx="750" cy="200" r="1" />
    <circle cx="650" cy="250" r="1" />
    <circle cx="550" cy="300" r="1" />
    <circle cx="450" cy="350" r="1" />
    <circle cx="350" cy="400" r="1" />
    <circle cx="250" cy="450" r="1" />
    <circle cx="150" cy="500" r="1" />
    <circle cx="50" cy="550" r="1" />
  </g>
</svg>